<svg xmlns="http://www.w3.org/2000/svg" xmlns:xlink="http://www.w3.org/1999/xlink" version="1.1" x="0px" y="0px" viewBox="-260 352 90 112.5" style="enable-background:new -260 352 90 90;" xml:space="preserve"><g><circle cx="-222.3" cy="391.7" r="1.8"/><circle cx="-208.6" cy="391.7" r="1.8"/><circle cx="-231.1" cy="407.1" r="1.8"/><path d="M-201.5,413.1c0.7,0.2,1.4,0.2,2.1,0.2c7.6,0,15.3-8.5,15.6-8.9l1.2-1.3l-1.3-1.2c-3.3-3-3.8-7.9-4.3-13   c-0.4-4.2-0.9-8.5-2.9-12.1c2.4-3.5,2.3-7.5,1-10.6c-2-4.7-7.2-8.5-12.6-7.3c-0.6-2.1-1.9-3.5-2.8-4.3c-5.1-4.4-15.1-4.5-20.2-0.1   c-0.9,0.7-2.1,2.1-2.7,4.2c-5.2-0.8-10.1,2.9-12,7.4c-1.3,3.1-1.4,7.2,1.1,10.7c-1.8,3.5-2.2,7.6-2.6,11.7c-0.5,5.2-1,10.1-4.3,13   l-1.4,1.2l1.3,1.3c0.1,0.1,3,3,6.6,4.9v1c-0.3,0-0.5-0.1-0.8-0.1c-2.4,0-4.3,1.9-4.3,4.3v5.1c-1.4,0.7-2.3,2.1-2.3,3.8   c0,0.9,0.3,1.8,0.8,2.5c-0.5,0.7-0.8,1.6-0.8,2.6c0,0.9,0.3,1.8,0.8,2.5c-0.5,0.7-0.8,1.6-0.8,2.6c0,2.4,1.9,4.3,4.3,4.3h3.1v0.7   v3.5h3.5h17.1h3h3.5h28.5v-3.4h0c0,0,0,0,0,0v-0.1h0c-0.1-6.8-5.6-12.4-12.4-12.5v0c-4.9,0-9-3.9-9.1-8.8   C-203.9,416-202.6,414.6-201.5,413.1z M-187.5,403.3c-2.7,2.7-7.9,6.7-12.1,6.5c0.9-2,1.3-4.3,1.3-6.6v-20.8c0,0,0.1,0,0.1,0l0,0   c0,0,0.1,0,0.1,0c0,0,0,0,0,0l0,0c1.8-0.8,3.3-1.7,4.5-2.7c1.2,2.8,1.6,6.2,1.9,9.7C-191.2,394.3-190.7,399.5-187.5,403.3z    M-202.4,362.6c3.7-1.2,7.6,1.6,9.1,5.1c1.8,4.3-0.1,8.3-5.2,10.9c-0.6-4.2-2.7-8-5.8-10.6C-203.1,365.9-202.6,364.1-202.4,362.6z    M-201.9,379.8c-3.1,0.3-6-1.9-7.7-3.5c1.3-1.4,2.5-3.1,3.7-5.1C-203.7,373.4-202.2,376.4-201.9,379.8z M-223.2,357.3   c3.7-3.2,11.9-3.2,15.6,0c2.8,2.4,2,5.8,0.5,8.5c-2.5-1.4-5.3-2.1-8.3-2.1c-3,0-5.8,0.8-8.3,2.1   C-225.2,363.1-226,359.7-223.2,357.3z M-215.5,367.3c2.4,0,4.6,0.6,6.6,1.7c-6.2,11.6-16.6,10.9-20.1,10.3   C-228.2,372.5-222.4,367.3-215.5,367.3z M-237,367.6c1.4-3.3,5-5.9,8.4-5.2c0.2,1.6,0.8,3.4,1.9,5.5c-3,2.6-5.1,6.2-5.7,10.3   C-237,375.6-238.8,371.8-237,367.6z M-242.4,402.9c3.1-3.8,3.6-8.9,4.1-13.9c0.3-3.4,0.7-6.6,1.8-9.3c1.1,0.8,2.4,1.6,3.9,2.3v16.8   h-0.9c-3.3,0-6,2.7-6,6v0.1C-240.7,404.3-241.7,403.5-242.4,402.9z M-241.1,414.4c0-0.4,0.3-0.7,0.8-0.7c0.4,0,0.7,0.3,0.7,0.7v4.6   h-1.5V414.4z M-242.7,422.5h10.1c0.4,0,0.7,0.3,0.7,0.8c0,0.4-0.3,0.7-0.7,0.7h-10.1c-0.4,0-0.7-0.3-0.7-0.8   C-243.4,422.8-243.1,422.5-242.7,422.5z M-242.7,427.6h10.1c0.4,0,0.7,0.3,0.7,0.8c0,0.4-0.3,0.7-0.7,0.7h-10.1   c-0.4,0-0.7-0.3-0.7-0.8C-243.4,427.9-243.1,427.6-242.7,427.6z M-242.7,434.2c-0.4,0-0.7-0.3-0.7-0.8c0-0.4,0.3-0.7,0.7-0.7h10.1   c0.4,0,0.7,0.3,0.7,0.8c0,0.4-0.3,0.7-0.7,0.7H-242.7z M-216,438.5h-3v0H-236v-0.7h3.4c2.4,0,4.3-1.9,4.3-4.3   c0-0.9-0.3-1.8-0.8-2.5c0.5-0.7,0.8-1.6,0.8-2.6c0-0.9-0.3-1.8-0.8-2.5c0.5-0.7,0.8-1.6,0.8-2.6c0-2.4-1.9-4.3-4.3-4.3h-3.4v-4.6   c0,0,0,0,0,0V405c0-1.4,1.1-2.5,2.5-2.5h15.1c1.4,0,2.5,1.1,2.5,2.5V438.5z M-196.6,429.4L-196.6,429.4c5,0,9.1,4,9.1,9h-25V420   c1.3-0.2,2.5-0.6,3.6-1.1C-207.8,424.8-202.7,429.3-196.6,429.4z M-212.4,416.4V405c0-3.3-2.7-6-6-6h-10.6v-16.1   c0.9,0.1,2.1,0.2,3.4,0.2c3.7,0,8.8-0.8,13.4-4.4c2,1.9,5.7,4.7,9.8,4.7c0.2,0,0.4,0,0.6,0v19.9   C-201.9,409.6-206.4,415-212.4,416.4z"/></g><text x="-260" y="457" fill="#000000" font-size="5px" font-weight="bold" font-family="'Helvetica Neue', Helvetica, Arial-Unicode, Arial, Sans-serif">Created by Eugene Dobrik</text><text x="-260" y="462" fill="#000000" font-size="5px" font-weight="bold" font-family="'Helvetica Neue', Helvetica, Arial-Unicode, Arial, Sans-serif">from the Noun Project</text></svg>