<svg xmlns="http://www.w3.org/2000/svg" xmlns:xlink="http://www.w3.org/1999/xlink" version="1.1" x="0px" y="0px" viewBox="0 0 236.439 273.96125" style="enable-background:new 0 0 236.439 219.169;" xml:space="preserve"><g><ellipse transform="matrix(0.3645 -0.9312 0.9312 0.3645 32.7178 92.9427)" cx="84.453" cy="22.501" rx="22.495" ry="22.496"/><path d="M143.186,87.884c1.809,1.962,2.749,4.512,2.643,7.181c-0.182,4.6-3.413,8.338-7.709,9.332   c11.492,20.207,25.355,33.959,32.149,40.041c-5.82,12.627-9.997,18.255-27.933,23.623l-27.292-23.048   c-3.065-2.589-7.199-3.55-11.092-2.58c-3.891,0.971-7.09,3.761-8.581,7.485l-11.477,28.693c3.349-0.233,6.678-0.362,9.98-0.362   c6.002,0.002,11.563,0.397,16.672,1.045l1.602-4.004l6.216,5.25c2.656,0.511,5.161,1.08,7.5,1.691   c4.88,1.273,9.071,2.706,12.508,4.075l-0.424,1.959c-3.126-1.262-6.91-2.585-11.315-3.787c-1.622-0.443-3.321-0.87-5.111-1.27   c-3.582-0.8-7.504-1.49-11.739-2.006c-4.872-0.593-10.158-0.953-15.86-0.955c-3.471-0.001-7.097,0.139-10.854,0.427   c-4.573,0.35-9.352,0.934-14.327,1.791c-0.679,8.511-1.97,17.304-3.868,26.289c3.39-0.793,6.663-1.432,9.82-1.934   c6.984-1.111,13.403-1.569,19.229-1.573c2.139,0.001,4.19,0.067,6.171,0.179c10.82,0.611,19.288,2.733,25.2,4.784   c3.184,1.105,5.611,2.187,7.254,2.997c0.159,0.079,0.32,0.158,0.465,0.231c0.818,0.414,1.395,0.738,1.723,0.93   c0.162,0.094,0.266,0.156,0.301,0.182l0.01,0.004c3.412,2.206,7.497,2.526,11.05,1.239c0.407-0.098,0.815-0.212,1.222-0.36   c24.788-8.992,41.788-16.861,60.229-34.215c0.158,0.19,0.316,0.379,0.473,0.573c1.853,2.273,3.578,4.768,4.722,7.033   c1.169,2.268,1.66,4.251,1.636,5.361c-0.026,0.87-0.139,1.222-0.512,1.811c-0.529,0.824-2.41,2.609-7.507,4.103   c-5.029,1.489-12.915,2.553-24.046,2.543c-4.42,0-8.002,3.582-8.002,8.002c0,4.418,3.582,7.999,8.002,7.999   c16.154-0.044,27.123-1.845,35.173-5.716c3.999-1.952,7.324-4.575,9.604-7.923c2.296-3.329,3.314-7.253,3.289-10.818   c-0.03-5.065-1.705-9.449-3.749-13.332c-3.112-5.811-7.313-10.689-10.764-14.319c-2.107-2.201-3.939-3.906-5.086-4.933   c-0.201-0.276-0.408-0.528-0.624-0.733c-8.592-8.308-15.609-16.298-24.663-24.302c-0.366-0.441-0.781-0.852-1.253-1.218v-0.002   c0,0,0,0-0.018-0.014c-0.952-0.704-23.982-19.297-37.594-49.375c-1.829-4.023-6.572-5.801-10.593-3.971   c-1.263,0.574-2.304,1.435-3.082,2.471c1.085,0.094,2.178,0.173,3.286,0.219C138.907,84.781,141.373,85.921,143.186,87.884z"/><ellipse transform="matrix(0.8613 -0.508 0.508 0.8613 -35.568 126.4978)" cx="213.941" cy="128.404" rx="22.495" ry="22.495"/><path d="M75.219,208.76c1.164,3.257,3.655,6.023,7.119,7.408c1.522,0.609,3.094,0.898,4.64,0.898   c4.961,0.001,9.654-2.974,11.609-7.862l0.727-1.817c-1.736-0.088-3.53-0.139-5.388-0.139   C87.818,207.252,81.575,207.758,75.219,208.76z"/><path d="M37.318,216.898c0.877,0,1.762-0.104,2.642-0.295c-3.157-3.361-4.674-8.162-3.631-12.997   c0.958-4.435,1.739-8.8,2.354-13.084c-1.837,0.663-3.687,1.354-5.559,2.093c-1.84,6.005-4.051,12.023-6.627,18.042   C28.756,214.569,32.931,216.898,37.318,216.898z"/><path d="M17.972,57.776c0.001-0.002,0.001-0.005,0.002-0.008c0.111-0.324,0.225-0.636,0.341-0.94   c1.984-5.216,4.706-7.667,7.987-9.461c0.495-0.262,1.012-0.494,1.541-0.71c-4.811,9.133-8.427,18.795-11.354,28.75   c-2.561,8.712-4.595,17.648-6.415,26.661c-0.465,2.301-0.92,4.606-1.363,6.915c-1.647,3.23-1.886,7.142-0.315,10.712l-0.001,0   c0,0,0.002,0.004,0.011,0.026c0.275,0.655,4.569,11.247,4.565,28.767c-0.01,13.722-2.586,31.718-11.913,52.988   c-2.777,6.32,0.1,13.695,6.422,16.469c1.634,0.717,3.34,1.057,5.018,1.057c4.81,0.001,9.394-2.792,11.453-7.479   c0.114-0.259,0.215-0.514,0.327-0.773c0.382-0.882,0.751-1.758,1.115-2.632c2.031-4.887,3.78-9.658,5.253-14.29   c0.287-0.902,0.548-1.791,0.815-2.683c4.844-16.17,6.518-30.623,6.51-42.658c-0.001-4.778-0.262-9.167-0.675-13.149   c2.381,6.819,5.009,17.837,5.022,33.359c0,5.665-0.371,11.958-1.226,18.853c-0.091,0.734-0.175,1.46-0.278,2.208   c-0.618,4.5-1.444,9.251-2.527,14.269c-0.977,4.529,0.641,9.007,3.847,11.908c0.582,0.527,1.216,0.999,1.897,1.412   c1.157,0.701,2.44,1.236,3.837,1.538c0.889,0.192,1.776,0.284,2.65,0.284c5.001,0.001,9.56-3.021,11.506-7.651   c0.295-0.703,0.535-1.441,0.702-2.214c0.002-0.01,0.004-0.02,0.006-0.03c2.051-9.511,3.321-18.325,3.991-26.443   c0.058-0.701,0.097-1.379,0.146-2.07c0.299-4.208,0.452-8.243,0.452-12.063c0.024-30.806-8.903-48.826-12.08-54.21   c2.236-22.462,9.837-31.939,22-40.868c0.396,0.512,0.811,1.035,1.253,1.574c2.091,2.547,4.7,5.371,7.89,8.229   c0.056,0.05,0.117,0.1,0.173,0.15c10.087,9.015,26.238,18.212,48.964,19.086c0.109,0.004,0.218,0.007,0.326,0.007   c0.424,0,0.839-0.043,1.247-0.106c3.692-0.583,6.585-3.696,6.74-7.573c0.175-4.414-3.259-8.136-7.673-8.313   c-1.463-0.062-2.873-0.175-4.259-0.312c-16.416-1.62-27.451-8.305-34.837-14.852c-0.006-0.005-0.013-0.01-0.018-0.016   c-3.6-3.216-6.255-6.397-8.061-8.876c-0.189-0.26-0.378-0.52-0.548-0.763c-0.899-1.281-1.539-2.325-1.935-3.006   c-0.197-0.342-0.334-0.595-0.412-0.74c-0.034-0.067-0.059-0.112-0.069-0.133c-0.003-0.006-0.003-0.006-0.003-0.006h0   c-0.141-0.287-0.301-0.558-0.471-0.821c-0.633-1.325-1.434-2.458-2.36-3.162C73.126,46.459,63.067,38.93,53.006,31.402   c-1.063-0.81-2.861-1.362-4.91-1.602c-2.136-0.407-5.695-0.927-10.045-0.934c-5.512,0.016-12.408,0.82-19.158,4.321   C12.24,36.579,6.032,43.018,2.914,52.37c-0.046,0.138-0.098,0.269-0.142,0.408l-0.001-0.001c-1.641,4.993-2.5,10.745-2.5,17.359   c0.002,7.426,1.077,15.96,3.438,25.906c0.59,2.489,2.287,4.424,4.443,5.417c2.099-10.374,4.626-21.332,8.133-32.111   C16.35,64.505,17.009,60.706,17.972,57.776z M8.433,119.779H8.431H8.433C8.433,119.778,8.433,119.779,8.433,119.779z"/></g></svg>
