<svg xmlns="http://www.w3.org/2000/svg" xmlns:xlink="http://www.w3.org/1999/xlink" version="1.1" x="0px" y="0px" viewBox="0 0 100 125" enable-background="new 0 0 100 100" xml:space="preserve"><path d="M65.124588,11.2768087c0,0-21.4406738-13.8000488-37.8334351,6.1862783  c-1.6223145,1.9782715-3.6051025,6.267334-4.2794189,8.7744141c-0.8775024,3.2646484-1.4464111,7.9047871-9.1156607,6.175539  c0,0,2.6012564,4.421875,6.6766348,5.2016602l-3.6294556,2.9311523c0,0,3.2439575,0.1599121,7.8829346-0.1502686  c-0.0682983,0.8182373-0.1117554,1.6434326-0.1117554,2.4788818c0,11.034668,6.0787964,20.6707764,15.0594501,25.7531738  c-7.4978638,4.8701172-12.4818134,13.3867188-12.4818134,23.0671387h2c0-9.3969727,5.0603046-17.6113281,12.555727-21.9985352  c1.6883545,0.786499,3.4611816,1.4194336,5.3032837,1.8779297l-0.126709,5.4035645l-1.4720459,0.0280762l-4.6982422-0.0834961  c-0.0004883,0-0.0009766,0-0.0009766,0l-1.0932617-0.0175781c-1.5678711-0.0371094-3.0258789,0.5898438-4.2006836,1.7299805  c-1.4077148,1.3657227-2.2319336,3.3530273-2.2617188,5.4633789l-0.0014648,1.4960938  c0.0249023,2.1000977,0.8447266,4.0859375,2.25,5.4487305c1.1469727,1.1118164,2.597168,1.7207031,4.0952148,1.7207031  c0.034668,0,0.0698242-0.0004883,0.1049805-0.0014648l7.6965332-0.1466064  c0.3530884,0.2996826,0.8009033,0.4919434,1.2999268,0.50354l10.4784546,0.2458496  c0.6621094,0.0155029,1.2527466-0.2839355,1.6480713-0.7545166l7.9663696,0.1517334  c0.0351563,0.0009766,0.0698242,0.0014648,0.1049805,0.0014648c1.4980469-0.0004883,2.9487305-0.6088867,4.0952148-1.7207031  c1.4052734-1.362793,2.2250977-3.3486328,2.25-5.4594727l-0.0019531-1.4960938  c-0.0297852-2.0996094-0.8540039-4.0869141-2.2612305-5.4526367c-1.1748047-1.1401367-2.640625-1.769043-4.2006836-1.7299805  l-1.0932617,0.0175781c0,0-0.0004883,0-0.0009766,0l-4.6669922,0.0839844l-1.3584595-0.0258789l0.1292114-5.5074463  c1.6989746-0.4483643,3.3365479-1.0472412,4.9021606-1.7764893c7.4954224,4.387085,12.555603,12.6013184,12.555603,21.998291h2  c0-9.6802979-4.9838867-18.1968994-12.4816895-23.0668945c7.4573975-4.2203369,12.9074097-11.5810547,14.5430298-20.276123  c1.1842041,0.3564453,1.9090576,0.5178223,1.9090576,0.5178223C91.0543976,8.013381,65.124588,11.2768087,65.124588,11.2768087z   M53.3773956,83.5465851c-0.1121826,0.1394043-0.2537231,0.2259521-0.3905029,0.2287598l-6.1246948,0.1164551l-0.630188,0.0119629  c-0.4667969,0.0087891-0.8393555,0.3925781-0.8339844,0.8598633l0.0014648,0.1240234  c0.0029297,0.2260742,0.0957031,0.4423828,0.2583008,0.6000977s0.3891602,0.2724609,0.6079102,0.2392578l0.5537109-0.010498  l5.0844727-0.0969238c0.137207-0.0092773,0.2670898,0.0810547,0.3398438,0.1513672  c0.1640625,0.1586914,0.2636719,0.4121094,0.2666016,0.6772461c0.0058594,0.5024414-0.3105469,0.8588867-0.5986328,0.8647461  l-5.132019,0.0979004l-1.1360474,0.0217285c-0.3276367,0.0058594-0.6791992,0.3251953-0.8144531,0.6235352  c-0.1206055,0.265625-0.0966797,0.574707,0.0639648,0.8183594c0.1601563,0.2441406,0.4555664,0.4130859,0.7260742,0.3823242  l1.1176758-0.0213623l3.1992188-0.0611572c0.1630859,0.0019531,0.2670898,0.0805664,0.3393555,0.1508789  c0.1640625,0.1591797,0.2636719,0.4125977,0.2666016,0.6787109c0.0063477,0.5024414-0.3105469,0.8583984-0.5986328,0.8642578  l-3.2462769,0.0617676l-6.9832153,0.1330566c-1.0854492-0.0083008-2.1391602-0.4204102-2.984375-1.2407227  c-1.0825195-1.0493164-1.7143555-2.5976563-1.7333984-4.2368164l0.0014648-1.4741211  c0.0229492-1.6513672,0.6591797-3.2026367,1.7451172-4.2563477c0.8330078-0.8081055,1.8706055-1.2504883,2.9291992-1.2504883  c0.0200195,0,0.0405273,0,0.0610352,0.0004883l5.8203125,0.1005859l1.4311523-0.0272217l4.8369141-0.0919189  c0.1303711-0.012207,0.2670898,0.0805664,0.3398438,0.1513672c0.1640625,0.1586914,0.2636719,0.4121094,0.2666016,0.6772461  c0.0058594,0.5024414-0.3105469,0.8588867-0.5986328,0.8647461l-4.8844604,0.0930176l-0.7542114,0.0144043  c-0.4667969,0.0087891-0.8393555,0.3925781-0.8339844,0.8598633l0.0014648,0.1240234  c0.0029297,0.2260742,0.0957031,0.4423828,0.2583008,0.6000977c0.1625977,0.1572266,0.3891602,0.2543945,0.6079102,0.2392578  l0.6777344-0.0129395l6.0771484-0.1159668c0.1679688-0.0068359,0.2670898,0.0805664,0.3393555,0.1508789  c0.0213013,0.020752,0.031311,0.0541992,0.050415,0.0778809c0.1277466,0.1586914,0.2141113,0.3696289,0.2166748,0.6003418  C53.5885773,83.1740265,53.5010529,83.3930206,53.3773956,83.5465851z M53.8042755,72.4383087  c-0.6559448-0.2801514-1.1099243-0.9356689-1.0921631-1.6922607c0.0019531-0.0830078,0.017334-0.1618652,0.0300903-0.2414551  c0.1398926-0.8735352,0.899231-1.5340576,1.8083496-1.5126953c0.8693848,0.0203857,1.5796509,0.6550293,1.7265015,1.479248  c0.020752,0.1164551,0.0305786,0.2363281,0.02771,0.3591309c-0.0168457,0.7182617-0.4556274,1.3232422-1.0715332,1.5964355  c-0.3137207,0.0098877-0.6265259,0.0239258-0.942627,0.0239258C54.1275177,72.4506378,53.9667511,72.4408722,53.8042755,72.4383087z   M63.0596466,78.7060089l5.7890625-0.1010742c1.0625-0.0405273,2.1411133,0.4262695,2.9897461,1.25  c1.0859375,1.0532227,1.722168,2.6049805,1.7451172,4.2451172l0.0019531,1.4746094  c-0.019043,1.6499023-0.6508789,3.1982422-1.7333984,4.2475586c-0.8457031,0.8203125-1.9091797,1.2294922-2.984375,1.2407227  l-7.4924927-0.1427002l-2.7374878-0.052124c-0.2880859-0.0058594-0.6044922-0.3623047-0.5986328-0.8642578  c0.0029297-0.265625,0.1030273-0.5195313,0.2670898-0.6787109c0.0712891-0.0693359,0.1865234-0.1508789,0.3320313-0.1508789  c0.0024414,0,0.0048828,0,0.0073242,0l2.7694092,0.0529785l1.5469971,0.029541  c0.2685547,0.0229492,0.5322266-0.1982422,0.6933594-0.4379883s0.1616211-0.6074219,0.0473633-0.8725586  c-0.1318359-0.3066406-0.4306641-0.5073242-0.7646484-0.5136719l-1.4803467-0.0283203l-4.7877197-0.0913086  c-0.2880859-0.0058594-0.6049805-0.3618164-0.5986328-0.8647461c0.0029297-0.2651367,0.1025391-0.5185547,0.2666016-0.6777344  c0.0722656-0.0703125,0.190918-0.1557617,0.3393555-0.1508789l4.8201294,0.0917969l0.8185425,0.015625  c0.2314453,0.0307617,0.4453125-0.081543,0.6079102-0.2392578s0.2553711-0.3740234,0.2583008-0.6000977l0.0014648-0.1240234  c0.0053711-0.4672852-0.3671875-0.8510742-0.8339844-0.8598633l-0.8095093-0.0153809l-5.9448853-0.1130371  c-0.137085-0.0028076-0.2788086-0.0893555-0.3910522-0.2287598c-0.1236572-0.1535645-0.2111206-0.3723145-0.2080688-0.635498  c0.0025635-0.2312012,0.0889282-0.4423828,0.2167358-0.6009521c0.019104-0.0236816,0.0290527-0.0570068,0.050354-0.0777588  c0.0722656-0.0703125,0.1918945-0.1577148,0.3393555-0.1508789l5.9772339,0.1140137l0.7771606,0.0148926  c0.2314453,0.012207,0.4453125-0.0820313,0.6079102-0.2392578c0.1625977-0.1577148,0.2553711-0.3740234,0.2583008-0.6000977  l0.0014648-0.1240234c0.0053711-0.4672852-0.3671875-0.8510742-0.8339844-0.8598633l-0.7680664-0.0146484l-4.8701172-0.0927734  c-0.2880859-0.0058594-0.6049805-0.3618164-0.5986328-0.8647461c0.0029297-0.2651367,0.1025391-0.5185547,0.2666016-0.6777344  c0.0727539-0.0703125,0.1972656-0.1582031,0.3393555-0.1508789l4.9025269,0.0930176L63.0596466,78.7060089z M66.9034576,67.4965363  c-0.7608032,0.3913574-1.5413818,0.748291-2.3408203,1.0690918c-0.8739624,0.3508301-1.7695923,0.6572266-2.6846313,0.9187012  l0.0075073-0.3204346c0.0271606-1.1574707-0.8891602-2.1177979-2.0465698-2.1448975l-10.2853394-0.2412109l-0.1931152-0.0043945  c-0.4066772-0.0095215-0.7858887,0.1025391-1.1119995,0.2954102c-0.6019287,0.3562012-1.0151978,1.0002441-1.0328369,1.7509766  l-0.0188599,0.8049316c-1.0876465-0.2885742-2.1471558-0.6452637-3.1781616-1.059082  c-0.7994995-0.3208008-1.5800171-0.6777344-2.3408203-1.0690918c-8.9338379-4.5952148-15.0629902-13.9030762-15.0629902-24.6220703  c0-0.8869629,0.0461426-1.7631836,0.1281128-2.6289063c6.1410542-0.5510254,14.0379658-1.9458008,20.2507343-5.3774414  c-2.4542236,2.0744629-4.7390747,3.8674316-5.4597778,4.0012207c0,0,12.5628662,1.755249,21.6174927-8.5051289  c1.5578613,10.2133808,12.4904175,15.3453388,18.3751831,17.394289  C79.9853668,56.3738556,74.4480743,63.6161652,66.9034576,67.4965363z M45.1777496,49.2768097  c0,1.3908691-1.1273804,2.5183105-2.5181274,2.5183105s-2.5181885-1.1274414-2.5181885-2.5183105  c0-1.390625,1.1274414-2.5180664,2.5181885-2.5180664S45.1777496,47.8861847,45.1777496,49.2768097z M68.4401398,49.2768097  c0,1.3908691-1.1274414,2.5183105-2.5181885,2.5183105c-1.390686,0-2.5181274-1.1274414-2.5181274-2.5183105  c0-1.390625,1.1274414-2.5180664,2.5181274-2.5180664C67.3126984,46.7587433,68.4401398,47.8861847,68.4401398,49.2768097z   M58.1201935,62.1625519c0,0.9475098-0.6574097,1.7664795-1.6749268,2.2473145  c-0.6101074,0.2884521-1.3496704,0.4553223-2.1546631,0.4553223c-0.8048706,0-1.5443115-0.1668701-2.1543579-0.4553223  c-1.017334-0.480957-1.6747437-1.2998047-1.6747437-2.2473145c0-0.4692383,0.3808594-0.8500977,0.8500977-0.8500977  s0.8500977,0.3808594,0.8500977,0.8500977c0,0.3989258,0.8491211,1.0024414,2.1289063,1.0024414  c1.2802734,0,2.1293945-0.6035156,2.1293945-1.0024414c0-0.4692383,0.3808594-0.8500977,0.8500977-0.8500977  S58.1201935,61.6933136,58.1201935,62.1625519z"/><text x="0" y="115" fill="#000000" font-size="5px" font-weight="bold" font-family="'Helvetica Neue', Helvetica, Arial-Unicode, Arial, Sans-serif">Created by Llisole</text><text x="0" y="120" fill="#000000" font-size="5px" font-weight="bold" font-family="'Helvetica Neue', Helvetica, Arial-Unicode, Arial, Sans-serif">from the Noun Project</text></svg>