<svg xmlns:dc="http://purl.org/dc/elements/1.1/" xmlns:cc="http://creativecommons.org/ns#" xmlns:rdf="http://www.w3.org/1999/02/22-rdf-syntax-ns#" xmlns:svg="http://www.w3.org/2000/svg" xmlns="http://www.w3.org/2000/svg" xmlns:sodipodi="http://sodipodi.sourceforge.net/DTD/sodipodi-0.dtd" xmlns:inkscape="http://www.inkscape.org/namespaces/inkscape" viewBox="0 0 100 125" version="1.1" x="0px" y="0px"><g transform="translate(0,-952.36216)"><path style="color:#000000;font-style:normal;font-variant:normal;font-weight:normal;font-stretch:normal;font-size:medium;line-height:normal;font-family:sans-serif;text-indent:0;text-align:start;text-decoration:none;text-decoration-line:none;text-decoration-style:solid;text-decoration-color:#000000;letter-spacing:normal;word-spacing:normal;text-transform:none;direction:ltr;block-progression:tb;writing-mode:lr-tb;baseline-shift:baseline;text-anchor:start;white-space:normal;clip-rule:nonzero;display:inline;overflow:visible;visibility:visible;opacity:1;isolation:auto;mix-blend-mode:normal;color-interpolation:sRGB;color-interpolation-filters:linearRGB;solid-color:#000000;solid-opacity:1;fill:#000000;fill-opacity:1;fill-rule:nonzero;stroke:none;stroke-width:6;stroke-linecap:butt;stroke-linejoin:miter;stroke-miterlimit:4;stroke-dasharray:none;stroke-dashoffset:0;stroke-opacity:1;color-rendering:auto;image-rendering:auto;shape-rendering:auto;text-rendering:auto;enable-background:accumulate" d="m 50.0005,988.69957 c -10.520842,0 -19.076011,8.55518 -19.076011,19.07603 0,10.5209 8.555169,19.0752 19.076011,19.0752 10.520842,0 19.076011,-8.5543 19.076011,-19.0752 0,-10.52085 -8.555169,-19.07603 -19.076011,-19.07603 z m 0,2.45144 c 9.195989,0 16.624578,7.42862 16.624578,16.62459 0,9.196 -7.428589,16.6238 -16.624578,16.6238 -9.195989,0 -16.624578,-7.4278 -16.624578,-16.6238 0,-9.19597 7.428589,-16.62459 16.624578,-16.62459 z"/><path style="" d="m 47.267011,1003.3326 a 3.8814356,3.8814356 0 0 1 -3.881435,3.8814 3.8814356,3.8814356 0 0 1 -3.881436,-3.8814 3.8814356,3.8814356 0 0 1 3.881436,-3.88145 3.8814356,3.8814356 0 0 1 3.881435,3.88145 z" fill="#000000" stroke="none"/><path style="" d="m 60.522216,1003.3837 a 3.8814356,3.8814356 0 0 1 -3.881436,3.8814 3.8814356,3.8814356 0 0 1 -3.881435,-3.8814 3.8814356,3.8814356 0 0 1 3.881435,-3.88148 3.8814356,3.8814356 0 0 1 3.881436,3.88148 z" fill="#000000" stroke="none"/><path style="color:#000000;font-style:normal;font-variant:normal;font-weight:normal;font-stretch:normal;font-size:medium;line-height:normal;font-family:sans-serif;text-indent:0;text-align:start;text-decoration:none;text-decoration-line:none;text-decoration-style:solid;text-decoration-color:#000000;letter-spacing:normal;word-spacing:normal;text-transform:none;direction:ltr;block-progression:tb;writing-mode:lr-tb;baseline-shift:baseline;text-anchor:start;white-space:normal;clip-rule:nonzero;display:inline;overflow:visible;visibility:visible;opacity:1;isolation:auto;mix-blend-mode:normal;color-interpolation:sRGB;color-interpolation-filters:linearRGB;solid-color:#000000;solid-opacity:1;fill:#000000;fill-opacity:1;fill-rule:nonzero;stroke:none;stroke-width:6;stroke-linecap:butt;stroke-linejoin:miter;stroke-miterlimit:4;stroke-dasharray:none;stroke-dashoffset:0;stroke-opacity:1;color-rendering:auto;image-rendering:auto;shape-rendering:auto;text-rendering:auto;enable-background:accumulate" d="m 58.217429,1011.4839 c -1.274195,3.5153 -4.533047,5.8324 -8.183413,5.8485 -3.650366,0.016 -6.928209,-2.2721 -8.232091,-5.7759 l -2.297421,0.8546 c 1.6525,4.4407 5.856395,7.3933 10.540684,7.3727 4.684288,-0.021 8.862093,-3.0095 10.476843,-7.4644 l -2.304602,-0.8355 z"/><path style="color:#000000;font-style:normal;font-variant:normal;font-weight:normal;font-stretch:normal;font-size:medium;line-height:normal;font-family:sans-serif;text-indent:0;text-align:start;text-decoration:none;text-decoration-line:none;text-decoration-style:solid;text-decoration-color:#000000;letter-spacing:normal;word-spacing:normal;text-transform:none;direction:ltr;block-progression:tb;writing-mode:lr-tb;baseline-shift:baseline;text-anchor:start;white-space:normal;clip-rule:nonzero;display:inline;overflow:visible;visibility:visible;opacity:1;isolation:auto;mix-blend-mode:normal;color-interpolation:sRGB;color-interpolation-filters:linearRGB;solid-color:#000000;solid-opacity:1;fill:#000000;fill-opacity:1;fill-rule:nonzero;stroke:none;stroke-width:6;stroke-linecap:butt;stroke-linejoin:miter;stroke-miterlimit:4;stroke-dasharray:none;stroke-dashoffset:0;stroke-opacity:1;color-rendering:auto;image-rendering:auto;shape-rendering:auto;text-rendering:auto;enable-background:accumulate" d="m 25.751901,977.94904 c -3.432302,-0.30611 -6.980074,0.3123 -10.255002,1.96146 -8.7331403,4.39777 -12.7304396,14.71729 -9.238359,23.8504 3.4920794,9.1331 13.354445,14.1534 22.793859,11.6028 l -0.639193,-2.3668 c -8.245272,2.2279 -16.814116,-2.1337 -19.8644273,-10.1114 -3.0503116,-7.97771 0.4225984,-16.94387 8.0509463,-20.78531 7.628348,-3.84141 16.899988,-1.29324 21.493131,5.90755 l 2.0668,-1.3183 c -3.286472,-5.15227 -8.687251,-8.23022 -14.407755,-8.7404 z"/><path style="" d="m 21.343027,992.50542 a 3.8814356,3.8814356 0 0 1 -3.881436,3.88144 3.8814356,3.8814356 0 0 1 -3.881435,-3.88144 3.8814356,3.8814356 0 0 1 3.881435,-3.88143 3.8814356,3.8814356 0 0 1 3.881436,3.88143 z" fill="#000000" stroke="none"/><path style="" d="m 34.598231,992.5565 a 3.8814356,3.8814356 0 0 1 -3.881435,3.88143 3.8814356,3.8814356 0 0 1 -3.881436,-3.88143 3.8814356,3.8814356 0 0 1 3.881436,-3.88144 3.8814356,3.8814356 0 0 1 3.881435,3.88144 z" fill="#000000" stroke="none"/><path style="color:#000000;font-style:normal;font-variant:normal;font-weight:normal;font-stretch:normal;font-size:medium;line-height:normal;font-family:sans-serif;text-indent:0;text-align:start;text-decoration:none;text-decoration-line:none;text-decoration-style:solid;text-decoration-color:#000000;letter-spacing:normal;word-spacing:normal;text-transform:none;direction:ltr;block-progression:tb;writing-mode:lr-tb;baseline-shift:baseline;text-anchor:start;white-space:normal;clip-rule:nonzero;display:inline;overflow:visible;visibility:visible;opacity:1;isolation:auto;mix-blend-mode:normal;color-interpolation:sRGB;color-interpolation-filters:linearRGB;solid-color:#000000;solid-opacity:1;fill:#000000;fill-opacity:1;fill-rule:nonzero;stroke:none;stroke-width:6;stroke-linecap:butt;stroke-linejoin:miter;stroke-miterlimit:4;stroke-dasharray:none;stroke-dashoffset:0;stroke-opacity:1;color-rendering:auto;image-rendering:auto;shape-rendering:auto;text-rendering:auto;enable-background:accumulate" d="m 15.877542,1000.7293 -2.297421,0.8547 c 2.10986,5.6697 8.268313,8.6927 13.954496,6.8156 l -0.768467,-2.3285 c -4.449743,1.4689 -9.219411,-0.8563 -10.888608,-5.3418 z"/><path style="" d="m 73.191045,992.50542 a 3.8814356,3.8814356 0 0 1 -3.881436,3.88144 3.8814356,3.8814356 0 0 1 -3.881436,-3.88144 3.8814356,3.8814356 0 0 1 3.881436,-3.88143 3.8814356,3.8814356 0 0 1 3.881436,3.88143 z" fill="#000000" stroke="none"/><path style="" d="m 86.446248,992.5565 a 3.8814356,3.8814356 0 0 1 -3.881434,3.88143 3.8814356,3.8814356 0 0 1 -3.881436,-3.88143 3.8814356,3.8814356 0 0 1 3.881436,-3.88144 3.8814356,3.8814356 0 0 1 3.881434,3.88144 z" fill="#000000" stroke="none"/><path style="color:#000000;font-style:normal;font-variant:normal;font-weight:normal;font-stretch:normal;font-size:medium;line-height:normal;font-family:sans-serif;text-indent:0;text-align:start;text-decoration:none;text-decoration-line:none;text-decoration-style:solid;text-decoration-color:#000000;letter-spacing:normal;word-spacing:normal;text-transform:none;direction:ltr;block-progression:tb;writing-mode:lr-tb;baseline-shift:baseline;text-anchor:start;white-space:normal;clip-rule:nonzero;display:inline;overflow:visible;visibility:visible;opacity:1;isolation:auto;mix-blend-mode:normal;color-interpolation:sRGB;color-interpolation-filters:linearRGB;solid-color:#000000;solid-opacity:1;fill:#000000;fill-opacity:1;fill-rule:nonzero;stroke:none;stroke-width:6;stroke-linecap:butt;stroke-linejoin:miter;stroke-miterlimit:4;stroke-dasharray:none;stroke-dashoffset:0;stroke-opacity:1;color-rendering:auto;image-rendering:auto;shape-rendering:auto;text-rendering:auto;enable-background:accumulate" d="m 74.581861,977.9227 c 3.425438,-0.24499 6.949166,0.43005 10.185577,2.12346 8.630429,4.51576 12.475534,14.83846 8.902403,23.89994 -3.573127,9.0614 -13.428811,13.9813 -22.818594,11.3913 l 0.651959,-2.3637 c 8.201671,2.2624 16.764963,-2.0122 19.885973,-9.927 3.121013,-7.91485 -0.219681,-16.88403 -7.758082,-20.8284 -7.538399,-3.94437 -16.812365,-1.57603 -21.535424,5.50058 l -2.038871,-1.36059 c 3.379532,-5.06359 8.815996,-8.02725 14.525059,-8.43559 z"/><path style="" d="m 78.657244,992.50542 a 3.8814356,3.8814356 0 0 0 3.881435,3.88144 3.8814356,3.8814356 0 0 0 3.881437,-3.88144 3.8814356,3.8814356 0 0 0 -3.881437,-3.88143 3.8814356,3.8814356 0 0 0 -3.881435,3.88143 z" fill="#000000" stroke="none"/><path style="" d="m 65.402039,992.5565 a 3.8814356,3.8814356 0 0 0 3.881436,3.88143 3.8814356,3.8814356 0 0 0 3.881436,-3.88143 3.8814356,3.8814356 0 0 0 -3.881436,-3.88144 3.8814356,3.8814356 0 0 0 -3.881436,3.88144 z" fill="#000000" stroke="none"/><path style="color:#000000;font-style:normal;font-variant:normal;font-weight:normal;font-stretch:normal;font-size:medium;line-height:normal;font-family:sans-serif;text-indent:0;text-align:start;text-decoration:none;text-decoration-line:none;text-decoration-style:solid;text-decoration-color:#000000;letter-spacing:normal;word-spacing:normal;text-transform:none;direction:ltr;block-progression:tb;writing-mode:lr-tb;baseline-shift:baseline;text-anchor:start;white-space:normal;clip-rule:nonzero;display:inline;overflow:visible;visibility:visible;opacity:1;isolation:auto;mix-blend-mode:normal;color-interpolation:sRGB;color-interpolation-filters:linearRGB;solid-color:#000000;solid-opacity:1;fill:#000000;fill-opacity:1;fill-rule:nonzero;stroke:none;stroke-width:6;stroke-linecap:butt;stroke-linejoin:miter;stroke-miterlimit:4;stroke-dasharray:none;stroke-dashoffset:0;stroke-opacity:1;color-rendering:auto;image-rendering:auto;shape-rendering:auto;text-rendering:auto;enable-background:accumulate" d="m 84.12266,1000.7293 2.297419,0.8547 c -2.1023,5.6493 -8.226842,8.674 -13.901826,6.8324 l 0.757295,-2.3318 c 4.440528,1.441 9.183989,-0.8861 10.847112,-5.3553 z"/></g><text x="0" y="115" fill="#000000" font-size="5px" font-weight="bold" font-family="'Helvetica Neue', Helvetica, Arial-Unicode, Arial, Sans-serif">Created by anbileru adaleru</text><text x="0" y="120" fill="#000000" font-size="5px" font-weight="bold" font-family="'Helvetica Neue', Helvetica, Arial-Unicode, Arial, Sans-serif">from the Noun Project</text></svg>